<?xml version="1.0" encoding="UTF-8"?>
<svg id="Layer_1" data-name="Layer 1" xmlns="http://www.w3.org/2000/svg" viewBox="0 0 750.99 928.42">
  <defs>
    <style>
      .cls-1 {
        fill: #fff;
      }
    </style>
  </defs>
  <path class="cls-1" d="M96.91,926.37c-.96-1.35,4.31-6.77,5.46-7.82,22.55-20.63,54.61-42.59,79.56-61.44,113.58-85.8,228.82-169.6,341.83-256.17,21.72-16.64,63.57-44.37,74.55-68.45,10.79-23.64,6.54-48.47,6.49-73.42-.14-59.13,3.09-122.56.09-181.09-3.78-73.7-71.84-130.4-142.5-137.5-109.03.56-217.89-.48-326.84-1.16l-44.36-43.14L0,1.23l3-.04c147.22.19,295.16-3,442.3.38,21.99.51,41.81-.69,63.77,3.23,81.14,14.47,164.36,73.65,204.57,145.43,58.51,104.45,28.78,236.93,36.24,351.84l-2.05,30.95c-6.33,62.9-34.64,103.08-82.51,141.49-97.88,69.62-192.59,143.99-290.56,213.44-27.31,19.36-49.49,36.6-84.37,38.63-61.45,3.56-125.73,1.12-188.09,0l-5.39-.2Z"/>
  <path class="cls-1" d="M381.84,211.53l-2.2,2.45-99.31,101.53-2.27,3.73-.68,351.32c-1.32,3.76-4.29,6.28-7,9-10.13,10.13-23.64,19.89-34.54,29.46-32.1,28.18-64.72,54.82-96.91,82.96l-3.06,2.55-.58-581.06,246.56-1.93Z"/>
</svg>